# xmcd
#
# Track frame offsets: 
#        150
#        17538
#        36927
#        52389
#        72370
#        91031
#        111789
#        124404
#        143107
#        164862
#        180035
#
# Disc length: 2566 seconds
#
# Revision: 0
# Processed by: cddbd v1.5.2PL0 Copyright (c) Steve Scherf et al.
# Submitted via: ExactAudioCopyFreeDBPlugin 1.0
#
DISCID=980a040b
DTITLE=April Mae and The June Bugs - Boogie!
DYEAR=1900
DGENRE=Blues
TTITLE0=Kiss Me
TTITLE1=The Ballad Of April Mae
TTITLE2=Blue Moon Risen
TTITLE3=Special Of The Day
TTITLE4=Bye Bye Baby
TTITLE5=Scrub Me Mama-With A Boogie Beat!
TTITLE6=I Don't Know
TTITLE7=I Chop Wood
TTITLE8=Hear My Train A Comin'
TTITLE9=Pin Up Girl
TTITLE10=Moonlight Paradise
EXTD=
EXTT0=
EXTT1=
EXTT2=
EXTT3=
EXTT4=
EXTT5=
EXTT6=
EXTT7=
EXTT8=
EXTT9=
EXTT10=
PLAYORDER=
